<svg class="svg-icon" style="width: 1em; height: 1em;vertical-align: middle;fill: currentColor;overflow: hidden;" viewBox="0 0 1024 1024" version="1.1" xmlns="http://www.w3.org/2000/svg"><path d="M512 912.695652c221.295304 0 400.695652-179.400348 400.695652-400.695652S733.295304 111.304348 512 111.304348 111.304348 290.704696 111.304348 512s179.400348 400.695652 400.695652 400.695652z" fill="#0B77E3" fill-opacity=".2" /><path d="M211.478261 367.304348h601.043478v395.853913A26.991304 26.991304 0 0 1 785.530435 790.26087h-547.06087A27.091478 27.091478 0 0 1 211.478261 763.158261V367.304348z" fill="#FFFFFF" /><path d="M478.608696 467.366957c0-6.077217 5.019826-11.01913 11.01913-11.019131h44.744348c6.077217 0 11.01913 5.019826 11.01913 11.019131v44.744347c0 6.077217-5.019826 11.01913-11.01913 11.019131h-44.744348a11.085913 11.085913 0 0 1-11.01913-11.019131v-44.744347z m111.304347 0c0-6.077217 5.019826-11.01913 11.019131-11.019131h44.744348c6.077217 0 11.01913 5.019826 11.01913 11.019131v44.744347c0 6.077217-5.019826 11.01913-11.01913 11.019131h-44.744348a11.085913 11.085913 0 0 1-11.019131-11.019131v-44.744347z m111.304348 0c0-6.077217 5.019826-11.01913 11.019131-11.019131h44.744348c6.077217 0 11.01913 5.019826 11.01913 11.019131v44.744347c0 6.077217-5.019826 11.01913-11.01913 11.019131h-44.744348a11.085913 11.085913 0 0 1-11.019131-11.019131v-44.744347z m-222.608695 111.304347c0-6.077217 5.019826-11.01913 11.01913-11.01913h44.744348c6.077217 0 11.01913 5.019826 11.01913 11.01913v44.744348c0 6.077217-5.019826 11.01913-11.01913 11.019131h-44.744348a11.085913 11.085913 0 0 1-11.01913-11.019131v-44.744348z m111.304347 0c0-6.077217 5.019826-11.01913 11.019131-11.01913h44.744348c6.077217 0 11.01913 5.019826 11.01913 11.01913v44.744348c0 6.077217-5.019826 11.01913-11.01913 11.019131h-44.744348a11.085913 11.085913 0 0 1-11.019131-11.019131v-44.744348z m111.304348 0c0-6.077217 5.019826-11.01913 11.019131-11.01913h44.744348c6.077217 0 11.01913 5.019826 11.01913 11.01913v44.744348c0 6.077217-5.019826 11.01913-11.01913 11.019131h-44.744348a11.085913 11.085913 0 0 1-11.019131-11.019131v-44.744348z m-111.304348 111.304348c0-6.077217 5.019826-11.01913 11.019131-11.01913h44.744348c6.077217 0 11.01913 5.019826 11.01913 11.01913v44.744348c0 6.077217-5.019826 11.01913-11.01913 11.01913h-44.744348a11.085913 11.085913 0 0 1-11.019131-11.01913v-44.744348z m111.304348 0c0-6.077217 5.019826-11.01913 11.019131-11.01913h44.744348c6.077217 0 11.01913 5.019826 11.01913 11.01913v44.744348c0 6.077217-5.019826 11.01913-11.01913 11.01913h-44.744348a11.085913 11.085913 0 0 1-11.019131-11.01913v-44.744348z m-445.217391-111.304348c0-6.077217 5.019826-11.01913 11.01913-11.01913h44.744348c6.077217 0 11.01913 5.019826 11.019131 11.01913v44.744348c0 6.077217-5.019826 11.01913-11.019131 11.019131h-44.744348a11.085913 11.085913 0 0 1-11.01913-11.019131v-44.744348z m111.304348 0c0-6.077217 5.019826-11.01913 11.01913-11.01913h44.744348c6.077217 0 11.01913 5.019826 11.019131 11.01913v44.744348c0 6.077217-5.019826 11.01913-11.019131 11.019131h-44.744348a11.085913 11.085913 0 0 1-11.01913-11.019131v-44.744348z m111.304348 111.304348c0-6.077217 5.019826-11.01913 11.01913-11.01913h44.744348c6.077217 0 11.01913 5.019826 11.01913 11.01913v44.744348c0 6.077217-5.019826 11.01913-11.01913 11.01913h-44.744348a11.085913 11.085913 0 0 1-11.01913-11.01913v-44.744348z m-222.608696 0c0-6.077217 5.019826-11.01913 11.01913-11.01913h44.744348c6.077217 0 11.01913 5.019826 11.019131 11.01913v44.744348c0 6.077217-5.019826 11.01913-11.019131 11.01913h-44.744348a11.085913 11.085913 0 0 1-11.01913-11.01913v-44.744348z m111.304348 0c0-6.077217 5.019826-11.01913 11.01913-11.01913h44.744348c6.077217 0 11.01913 5.019826 11.019131 11.01913v44.744348c0 6.077217-5.019826 11.01913-11.019131 11.01913h-44.744348a11.085913 11.085913 0 0 1-11.01913-11.01913v-44.744348z" fill="#40A0FF" /><path d="M367.304348 467.366957c0-6.077217 5.019826-11.01913 11.01913-11.019131h44.744348c6.077217 0 11.01913 5.019826 11.019131 11.019131v44.744347c0 6.077217-5.019826 11.01913-11.019131 11.019131h-44.744348a11.085913 11.085913 0 0 1-11.01913-11.019131v-44.744347z m-111.304348 0c0-6.077217 5.019826-11.01913 11.01913-11.019131h44.744348c6.077217 0 11.01913 5.019826 11.019131 11.019131v44.744347c0 6.077217-5.019826 11.01913-11.019131 11.019131h-44.744348a11.085913 11.085913 0 0 1-11.01913-11.019131v-44.744347z" fill="#A6D2FF" /><path d="M211.478261 260.763826A26.957913 26.957913 0 0 1 238.469565 233.73913h547.06087A27.002435 27.002435 0 0 1 812.521739 260.763826V367.304348H211.478261v-106.540522zM322.782609 322.782609a22.26087 22.26087 0 1 0 0-44.521739 22.26087 22.26087 0 0 0 0 44.521739z m378.434782 0a22.26087 22.26087 0 1 0 0-44.521739 22.26087 22.26087 0 0 0 0 44.521739z" fill="#40A0FF" /><path d="M390.834087 619.542261a11.241739 11.241739 0 0 1-2.54887-1.335652l-27.358608-19.166609a11.097043 11.097043 0 0 1-2.726957-15.493565 11.097043 11.097043 0 0 1 15.493565-2.738087l18.565566 13.000348 38.377739-54.806261a11.085913 11.085913 0 0 1 15.482435-2.715826c5.042087 3.528348 6.266435 10.462609 2.749217 15.482434l-44.722087 63.866435a11.085913 11.085913 0 0 1-13.312 3.895652z m111.304348 0a11.241739 11.241739 0 0 1-2.54887-1.335652l-27.358608-19.166609a11.097043 11.097043 0 0 1-2.726957-15.493565 11.097043 11.097043 0 0 1 15.493565-2.738087l18.565565 13.000348 38.37774-54.806261a11.085913 11.085913 0 0 1 15.482434-2.715826c5.042087 3.528348 6.266435 10.462609 2.749218 15.482434l-44.722087 63.866435a11.085913 11.085913 0 0 1-13.312 3.895652z m-222.608696 0a11.241739 11.241739 0 0 1-2.548869-1.335652l-27.358609-19.166609a11.097043 11.097043 0 0 1-2.726957-15.493565 11.097043 11.097043 0 0 1 15.493566-2.738087l18.565565 13.000348 38.377739-54.806261a11.085913 11.085913 0 0 1 15.482435-2.715826c5.042087 3.528348 6.266435 10.462609 2.749217 15.482434l-44.722087 63.866435a11.085913 11.085913 0 0 1-13.312 3.895652z" fill="#005CB9" /><path d="M601.043478 701.217391c0-92.204522 73.082435-166.956522 163.417044-166.956521h3.394782c13.83513 0 31.899826 1.758609 44.733218 5.064347V790.26087H626.198261A168.837565 168.837565 0 0 1 601.043478 701.217391z" fill="#000000" opacity=".1" /><path d="M211.478261 260.774957V763.213913A27.046957 27.046957 0 0 0 238.469565 790.26087h547.06087A26.957913 26.957913 0 0 0 812.521739 763.225043V260.786087A27.046957 27.046957 0 0 0 785.530435 233.73913h-547.06087A26.957913 26.957913 0 0 0 211.478261 260.774957zM322.782609 322.782609a22.26087 22.26087 0 1 0 0-44.521739 22.26087 22.26087 0 0 0 0 44.521739z m0 22.260869a44.521739 44.521739 0 1 1 0-89.043478 44.521739 44.521739 0 0 1 0 89.043478z m378.434782-22.260869a22.26087 22.26087 0 1 0 0-44.521739 22.26087 22.26087 0 0 0 0 44.521739z m0 22.260869a44.521739 44.521739 0 1 1 0-89.043478 44.521739 44.521739 0 0 1 0 89.043478z m-512-84.268521A49.218783 49.218783 0 0 1 238.469565 211.478261h547.06087A49.307826 49.307826 0 0 1 834.782609 260.774957V763.213913A49.218783 49.218783 0 0 1 785.530435 812.521739h-547.06087A49.307826 49.307826 0 0 1 189.217391 763.225043V260.786087z" fill="#005CB9" /><path d="M211.478261 367.304348h601.043478v44.521739H211.478261z" fill="#0B77E3" /><path d="M690.086957 827.89287A144.217043 144.217043 0 0 0 790.26087 868.173913c38.878609 0 74.173217-15.326609 100.173913-40.281043V812.521739h6.945391H890.434783c0-18.465391-14.914783-33.391304-33.302261-33.391304H723.389217A33.313391 33.313391 0 0 0 690.086957 812.521739h-6.945392H690.086957v15.371131z m-21.292522-25.755827A144.027826 144.027826 0 0 1 645.565217 723.478261c0-79.916522 64.768-144.695652 144.695653-144.695652 79.916522 0 144.695652 64.768 144.695652 144.695652a144.027826 144.027826 0 0 1-23.229218 78.658782A55.596522 55.596522 0 0 0 857.132522 756.869565H723.389217a55.56313 55.56313 0 0 0-54.594782 45.267478zM827.158261 756.869565h-73.817044A66.749217 66.749217 0 0 1 723.478261 701.19513v-33.346782A66.82713 66.82713 0 0 1 790.26087 601.043478c36.886261 0 66.782609 29.918609 66.782608 66.80487v33.346782A66.782609 66.782609 0 0 1 827.158261 756.869565z" fill="#A6D2FF" /><path d="M690.086957 827.89287A144.217043 144.217043 0 0 0 790.26087 868.173913c38.878609 0 74.173217-15.326609 100.173913-40.281043V812.521739h6.945391H890.434783c0-18.465391-14.914783-33.391304-33.302261-33.391304H723.389217A33.313391 33.313391 0 0 0 690.086957 812.521739h-6.945392H690.086957v15.371131z" fill="#40A0FF" /><path d="M740.173913 617.73913m50.086957 0l0 0q50.086957 0 50.086956 50.086957l0 33.391304q0 50.086957-50.086956 50.086957l0 0q-50.086957 0-50.086957-50.086957l0-33.391304q0-50.086957 50.086957-50.086957Z" fill="#FFFFFF" /><path d="M623.304348 723.478261c0-92.215652 74.74087-166.956522 166.956522-166.956522s166.956522 74.74087 166.956521 166.956522-74.74087 166.956522-166.956521 166.956522-166.956522-74.74087-166.956522-166.956522z m66.782609 104.414609A144.217043 144.217043 0 0 0 790.26087 868.173913c38.878609 0 74.173217-15.326609 100.173913-40.281043V812.521739h6.945391H890.434783c0-18.465391-14.914783-33.391304-33.302261-33.391304H723.389217A33.313391 33.313391 0 0 0 690.086957 812.521739h-6.945392H690.086957v15.371131z m-21.292522-25.755827A55.56313 55.56313 0 0 1 723.389217 756.869565h133.743305c27.14713 0 49.753043 19.478261 54.594782 45.267478A144.027826 144.027826 0 0 0 934.956522 723.478261c0-79.927652-64.77913-144.695652-144.695652-144.695652-79.927652 0-144.695652 64.77913-144.695653 144.695652 0 29.005913 8.537043 56.019478 23.229218 78.658782zM827.158261 756.869565h-73.817044A66.749217 66.749217 0 0 1 723.478261 701.19513v-33.346782A66.82713 66.82713 0 0 1 790.26087 601.043478c36.886261 0 66.782609 29.918609 66.782608 66.80487v33.346782A66.782609 66.782609 0 0 1 827.158261 756.869565zM745.73913 667.848348v33.346782a44.521739 44.521739 0 1 0 89.043479 0v-33.346782a44.521739 44.521739 0 1 0-89.043479 0z" fill="#005CB9" /></svg>